# xmcd
#
# Track frame offsets: 
#        150
#        15295
#        31310
#        48253
#        60788
#        76375
#        97523
#        114025
#        135823
#        151840
#        166943
#
# Disc length: 2446 seconds
#
# Revision: 3
# Processed by: cddbd v1.5.2PL0 Copyright (c) Steve Scherf et al.
# Submitted via: ExactAudioCopy v1.0b3
#
DISCID=5c098c0b
DTITLE=Tim McGraw - Everywhere
DYEAR=1997
DGENRE=Country
TTITLE0=Where the Green Grass Grows
TTITLE1=For a Little While
TTITLE2=It's Your Love
TTITLE3=Ain't That the Way it Always Ends
TTITLE4=I Do But I Don't
TTITLE5=One of These Days
TTITLE6=Hard On the Ticker
TTITLE7=Everywhere
TTITLE8=Just to See You Smile
TTITLE9=You Just Get Better All the Time
TTITLE10=You Turn Me On
EXTD=Great live performer.\nMarried to Faith Hill.\nSon of Tug McGraw 
EXTD=(Former Pro Baseball player)
EXTT0=
EXTT1=
EXTT2=
EXTT3=
EXTT4=
EXTT5=
EXTT6=
EXTT7=
EXTT8=
EXTT9=
EXTT10=
PLAYORDER=
